<?xml version="1.0" encoding="UTF-8"?>
<svg width="125" height="125" version="1.1" viewBox="0 0 125 125" xmlns="http://www.w3.org/2000/svg">
 <g transform="translate(3.5,3.5)">
  <path d="m14 0a14 14 0 0 0-14 14v28a14 14 0 0 0 10 13.34v-21.34a14 14 0 0 1 14-14h62v-6a14 14 0 0 0-14-14z" fill="#2076dc"/>
  <path d="m32 28h72a14 14 0 0 1 14 14v40a14 14 0 0 1-14 14h-44l-22 22 6-22h-12a14 14 0 0 1-14-14v-40a14 14 0 0 1 14-14z" fill="#2076dc"/>
  <g transform="translate(1.1271)" fill="#fff">
   <path d="m92.482 53.019c-4.0485-0.06289-7.8817 2.9427-8.7863 6.8889-0.98086 3.8461 0.93693 8.2024 4.4656 10.038 3.3941 1.8981 7.9786 1.2284 10.679-1.5755 2.9676-2.9195 3.493-7.986 1.065-11.397-1.6268-2.4331-4.5011-3.9478-7.4236-3.9547z"/>
   <path d="m66.923 53.018c-4.0458-0.06331-7.8844 2.933-8.7892 6.8795-1.001 3.8786 0.96304 8.2807 4.5438 10.094 3.3643 1.8292 7.856 1.1704 10.542-1.5662 2.9614-2.8678 3.5516-7.8582 1.227-11.29-1.6071-2.5227-4.5386-4.1042-7.5233-4.1175z"/>
   <path d="m41.358 53.018c-4.0522-0.06446-7.8935 2.9389-8.7974 6.8912-0.9796 3.8453 0.9338 8.201 4.4622 10.037 3.3968 1.8999 7.9851 1.2292 10.687-1.5777 2.9089-2.8738 3.4741-7.8101 1.1776-11.219-1.604-2.5325-4.54-4.1151-7.5297-4.1317z"/>
  </g>
 </g>
</svg>
